# xmcd
#
# Track frame offsets:
# 150
# 17734
# 35755
# 58646
# 95787
# 129901
#
# Disc length: 2215 seconds
#
# Revision: 0
# Processed by: cddbd v1.5.1PL0 Copyright (c) Steve Scherf et al.
# Submitted via: Audion 3.0.2 (http://www.panic.com/audion/)
#
DISCID=4c08a506
DTITLE=Jazzy Jeff - In the House
DYEAR=1900
DGENRE=
TTITLE0=Booker T and The MGs - Melting Pot
TTITLE1=Kool and The Gang - Open Sesame
TTITLE2=Cymande - Bra
TTITLE3=Third World - Now That We Found Love
TTITLE4=Hamilton Bohannon - Let's Start The Dance
TTITLE5=Barry White - Your Sweetness Is My Weakness
EXTD=
EXTT0=
EXTT1=
EXTT2=
EXTT3=
EXTT4=
EXTT5=
PLAYORDER=
